# xmcd CD database file
#
# Track frame offsets:
#	150
#	11454
#	28043
#	41052
#	53673
#	65130
#	74325
#	86583
#	100028
#	112133
#	124237
#	138029
#	149425
#	161608
#	173819
#	184643
#	198521
#	213161
#	222976
#	232063
#	248907
#
# Disc length: 3456 seconds
#
# Revision: 0
# Processed by: cddbd v1.5.2PL0 Copyright (c) Steve Scherf et al.
# Submitted via: CDex 1.70beta2
#
DISCID=360d7e15
DTITLE=Memphis Slim - Diggin' My Potatoes
DYEAR=2004
DGENRE=Blues
TTITLE0=Lonesome
TTITLE1=Cold Blooded Woman
TTITLE2=One Man's Mad
TTITLE3=Four Walls
TTITLE4=It's Been Too Long
TTITLE5=I'm Lost Without you
TTITLE6=I'll Just Keep On Singing The Blues
TTITLE7=True Love
TTITLE8=Trouble, Trouble
TTITLE9=Tia Juana
TTITLE10=Guess I'm A Fool
TTITLE11=Feelin' Low
TTITLE12=For A Day
TTITLE13=Mother Earth
TTITLE14=Havin' Fun
TTITLE15=Trouble In Mind
TTITLE16=Lonesome In My Bedroom
TTITLE17=Diggin' My Potatoes
TTITLE18=El Capitan
TTITLE19=I Just Landed In Your Town
TTITLE20=John Henry
EXTD=YEAR: 2004
EXTT0=
EXTT1=
EXTT2=
EXTT3=
EXTT4=
EXTT5=
EXTT6=
EXTT7=
EXTT8=
EXTT9=
EXTT10=
EXTT11=
EXTT12=
EXTT13=
EXTT14=
EXTT15=
EXTT16=
EXTT17=
EXTT18=
EXTT19=
EXTT20=
PLAYORDER=
